<?xml version="1.0" encoding="UTF-8" standalone="no"?>
<!-- Created with Inkscape (http://www.inkscape.org/) -->

<svg
   width="100.00006mm"
   height="100mm"
   viewBox="0 0 100.00006 99.999999"
   version="1.1"
   id="svg1"
   inkscape:version="1.4.3 (0d15f75042, 2025-12-25)"
   sodipodi:docname="icon.svg"
   inkscape:export-filename="icon-256.png"
   inkscape:export-xdpi="65.023964"
   inkscape:export-ydpi="65.023964"
   xmlns:inkscape="http://www.inkscape.org/namespaces/inkscape"
   xmlns:sodipodi="http://sodipodi.sourceforge.net/DTD/sodipodi-0.dtd"
   xmlns:xlink="http://www.w3.org/1999/xlink"
   xmlns="http://www.w3.org/2000/svg"
   xmlns:svg="http://www.w3.org/2000/svg">
  <sodipodi:namedview
     id="namedview1"
     pagecolor="#ffffff"
     bordercolor="#666666"
     borderopacity="1.0"
     inkscape:showpageshadow="2"
     inkscape:pageopacity="0.0"
     inkscape:pagecheckerboard="0"
     inkscape:deskcolor="#d1d1d1"
     inkscape:document-units="mm"
     inkscape:zoom="3.2302329"
     inkscape:cx="269.02085"
     inkscape:cy="123.05614"
     inkscape:window-width="3840"
     inkscape:window-height="2079"
     inkscape:window-x="0"
     inkscape:window-y="44"
     inkscape:window-maximized="1"
     inkscape:current-layer="layer2" />
  <defs
     id="defs1">
    <linearGradient
       id="linearGradient2">
      <stop
         style="stop-color:#1b008f;stop-opacity:1;"
         offset="0"
         id="stop4" />
      <stop
         style="stop-color:#3075ff;stop-opacity:1;"
         offset="1"
         id="stop5" />
    </linearGradient>
    <linearGradient
       inkscape:collect="always"
       xlink:href="#linearGradient2"
       id="linearGradient3"
       x1="15.477346"
       y1="83.639267"
       x2="74.522667"
       y2="15.715403"
       gradientUnits="userSpaceOnUse"
       spreadMethod="pad"
       gradientTransform="translate(4.9999991,0.32266924)" />
  </defs>
  <g
     inkscape:label="Background"
     inkscape:groupmode="layer"
     id="layer1"
     sodipodi:insensitive="true">
    <circle
       style="fill:url(#linearGradient3);stroke:none;stroke-width:0.497;stroke-dasharray:none"
       id="path1"
       cx="50"
       cy="50"
       r="44.751381" />
  </g>
  <g
     inkscape:groupmode="layer"
     id="layer2"
     inkscape:label="Text">
    <path
       style="font-size:100.908px;line-height:1.25;font-family:'Noto Color Emoji';-inkscape-font-specification:'Noto Color Emoji';fill:#ffffff;stroke-width:0.525561"
       d="m 77.196417,67.489956 q 0,9.607939 -7.538537,14.879988 -7.489266,5.272048 -21.137466,5.272048 -25.374814,0 -29.415076,-17.63919 l 9.115225,-1.823045 q 1.576687,6.257478 6.700921,9.213767 5.124235,2.907018 13.94383,2.907018 9.115224,0 14.042373,-3.104104 4.976419,-3.153375 4.976419,-9.213767 0,-3.399733 -1.576687,-5.518406 -1.527416,-2.118674 -4.335891,-3.498276 -2.808474,-1.379601 -6.700921,-2.315759 -3.892447,-0.936159 -8.62251,-2.020131 -8.228337,-1.823045 -12.514956,-3.64609 -4.237348,-1.823045 -6.700922,-4.040261 -2.463574,-2.266489 -3.793904,-5.272049 -1.281059,-3.005561 -1.281059,-6.898008 0,-8.918138 6.799465,-13.746744 6.848736,-4.828605 19.560779,-4.828605 11.825155,0 18.082634,3.64609 6.257478,3.596818 8.770324,12.317871 l -9.263039,1.625959 q -1.527416,-5.518407 -5.814035,-7.981981 -4.286619,-2.512845 -11.874427,-2.512845 -8.326881,0 -12.712043,2.759203 -4.385162,2.759203 -4.385162,8.228337 0,3.202647 1.67523,5.321321 1.724502,2.069402 4.927149,3.547546 3.202646,1.428873 12.761314,3.547547 3.202646,0.739072 6.356021,1.527416 3.202646,0.739072 6.109664,1.823045 2.907017,1.034701 5.419863,2.463574 2.562117,1.428873 4.434434,3.498275 1.872316,2.069403 2.907017,4.877877 1.083973,2.808475 1.083973,6.602379 z"
       id="text5"
       transform="scale(1.0384033,0.96301697)"
       aria-label="S"
       inkscape:label="text5" />
  </g>
</svg>
